<?xml version="1.0" encoding="UTF-8" standalone="no"?>
<!-- Created with Inkscape (http://www.inkscape.org/) -->

<svg
   xmlns:dc="http://purl.org/dc/elements/1.1/"
   xmlns:cc="http://creativecommons.org/ns#"
   xmlns:rdf="http://www.w3.org/1999/02/22-rdf-syntax-ns#"
   xmlns:svg="http://www.w3.org/2000/svg"
   xmlns="http://www.w3.org/2000/svg"
   xmlns:sodipodi="http://sodipodi.sourceforge.net/DTD/sodipodi-0.dtd"
   xmlns:inkscape="http://www.inkscape.org/namespaces/inkscape"
   width="664.72797"
   height="259.17368"
   id="svg6709"
   sodipodi:version="0.32"
   inkscape:version="0.47pre2 r22153"
   version="1.0"
   sodipodi:docname="DB9Male.svg"
   inkscape:output_extension="org.inkscape.output.svg.inkscape"
   sodipodi:modified="true"
   inkscape:export-filename="/Volumes/iDisk/Documents/Projects/Fix/DB9Female.png"
   inkscape:export-xdpi="90"
   inkscape:export-ydpi="90">
  <defs
     id="defs6711">
    <inkscape:perspective
       sodipodi:type="inkscape:persp3d"
       inkscape:vp_x="0 : 129.58684 : 1"
       inkscape:vp_y="0 : 1000 : 0"
       inkscape:vp_z="664.72797 : 129.58684 : 1"
       inkscape:persp3d-origin="332.36398 : 86.391225 : 1"
       id="perspective30" />
  </defs>
  <sodipodi:namedview
     id="base"
     pagecolor="#ffffff"
     bordercolor="#666666"
     borderopacity="1.0"
     gridtolerance="10000"
     guidetolerance="10"
     objecttolerance="10"
     inkscape:pageopacity="0.0"
     inkscape:pageshadow="2"
     inkscape:zoom="1.2339542"
     inkscape:cx="346.91038"
     inkscape:cy="139.78288"
     inkscape:document-units="px"
     inkscape:current-layer="layer1"
     inkscape:window-width="1261"
     inkscape:window-height="775"
     inkscape:window-x="138"
     inkscape:window-y="25"
     showgrid="false"
     fit-margin-top="0"
     fit-margin-left="0"
     fit-margin-right="0"
     fit-margin-bottom="0"
     inkscape:window-maximized="0" />
  <metadata
     id="metadata6714">
    <rdf:RDF>
      <cc:Work
         rdf:about="">
        <dc:format>image/svg+xml</dc:format>
        <dc:type
           rdf:resource="http://purl.org/dc/dcmitype/StillImage" />
        <dc:title></dc:title>
      </cc:Work>
    </rdf:RDF>
  </metadata>
  <g
     inkscape:label="Layer 1"
     inkscape:groupmode="layer"
     id="layer1"
     transform="translate(-47.764931,-401.65814)">
    <rect
       style="fill:#bcbcbc;fill-opacity:1;stroke:#000000;stroke-width:4;stroke-linecap:round;stroke-linejoin:miter;stroke-miterlimit:4;stroke-opacity:1;stroke-dasharray:none;stroke-dashoffset:0"
       id="rect3794"
       width="660.72797"
       height="255.17368"
       x="49.764931"
       y="403.65814"
       ry="53.07613"
       inkscape:export-filename="/Volumes/iDisk/Documents/Projects/Fix/DB9Male.png"
       inkscape:export-xdpi="300"
       inkscape:export-ydpi="300" />
    <path
       inkscape:connector-curvature="0"
       style="fill:#808080;fill-opacity:1;stroke:#000000;stroke-width:7.14829302;stroke-linecap:butt;stroke-linejoin:round;stroke-miterlimit:11.60000038;stroke-opacity:1;stroke-dasharray:none"
       d="m 204.58884,432.31913 c -17.1259,0 -27.07205,13.57171 -22.27642,30.42394 l 39.02279,137.00382 c 4.79563,16.85223 22.42803,30.42395 39.55393,30.42394 l 35.08614,0 168.30727,0 35.08614,0 c 17.1259,0 34.78954,-13.57168 39.58517,-30.42394 l 38.99155,-137.00382 c 4.79564,-16.85226 -5.15051,-30.42394 -22.27642,-30.42394 l -147.68674,0 -55.70667,0 -147.68674,0 z"
       id="rect11737"
       inkscape:export-filename="/Volumes/iDisk/Documents/Projects/Fix/DB9Male.png"
       inkscape:export-xdpi="300"
       inkscape:export-ydpi="300" />
    <path
       sodipodi:type="arc"
       style="fill:#ffffff;fill-opacity:1;stroke:#000000;stroke-width:4.90450144;stroke-linecap:butt;stroke-linejoin:round;stroke-miterlimit:11.60000038;stroke-opacity:1;stroke-dasharray:none"
       id="path13521"
       sodipodi:cx="142.07622"
       sodipodi:cy="347.57501"
       sodipodi:rx="13.106663"
       sodipodi:ry="13.106663"
       d="m 155.18288,347.57501 a 13.106663,13.106663 0 1 1 -26.21333,0 13.106663,13.106663 0 1 1 26.21333,0 z"
       transform="matrix(0.715873,0,0,0.715873,137.90113,239.50038)"
       inkscape:export-filename="/Volumes/iDisk/Documents/Projects/Fix/DB9Male.png"
       inkscape:export-xdpi="300"
       inkscape:export-ydpi="300" />
    <path
       sodipodi:type="arc"
       style="fill:#ffffff;fill-opacity:1;stroke:#000000;stroke-width:4.90450144;stroke-linecap:butt;stroke-linejoin:round;stroke-miterlimit:11.60000038;stroke-opacity:1;stroke-dasharray:none"
       id="path15293"
       sodipodi:cx="142.07622"
       sodipodi:cy="347.57501"
       sodipodi:rx="13.106663"
       sodipodi:ry="13.106663"
       d="m 155.18288,347.57501 a 13.106663,13.106663 0 1 1 -26.21333,0 13.106663,13.106663 0 1 1 26.21333,0 z"
       transform="matrix(0.715873,0,0,0.715873,208.16006,239.50038)"
       inkscape:export-filename="/Volumes/iDisk/Documents/Projects/Fix/DB9Male.png"
       inkscape:export-xdpi="300"
       inkscape:export-ydpi="300" />
    <path
       sodipodi:type="arc"
       style="fill:#ffffff;fill-opacity:1;stroke:#000000;stroke-width:4.90450144;stroke-linecap:butt;stroke-linejoin:round;stroke-miterlimit:11.60000038;stroke-opacity:1;stroke-dasharray:none"
       id="path15295"
       sodipodi:cx="142.07622"
       sodipodi:cy="347.57501"
       sodipodi:rx="13.106663"
       sodipodi:ry="13.106663"
       d="m 155.18288,347.57501 a 13.106663,13.106663 0 1 1 -26.21333,0 13.106663,13.106663 0 1 1 26.21333,0 z"
       transform="matrix(0.715873,0,0,0.715873,278.41886,239.50038)"
       inkscape:export-filename="/Volumes/iDisk/Documents/Projects/Fix/DB9Male.png"
       inkscape:export-xdpi="300"
       inkscape:export-ydpi="300" />
    <path
       sodipodi:type="arc"
       style="fill:#ffffff;fill-opacity:1;stroke:#000000;stroke-width:4.90450144;stroke-linecap:butt;stroke-linejoin:round;stroke-miterlimit:11.60000038;stroke-opacity:1;stroke-dasharray:none"
       id="path15297"
       sodipodi:cx="142.07622"
       sodipodi:cy="347.57501"
       sodipodi:rx="13.106663"
       sodipodi:ry="13.106663"
       d="m 155.18288,347.57501 a 13.106663,13.106663 0 1 1 -26.21333,0 13.106663,13.106663 0 1 1 26.21333,0 z"
       transform="matrix(0.715873,0,0,0.715873,348.67776,239.50038)"
       inkscape:export-filename="/Volumes/iDisk/Documents/Projects/Fix/DB9Male.png"
       inkscape:export-xdpi="300"
       inkscape:export-ydpi="300" />
    <path
       sodipodi:type="arc"
       style="fill:#ffffff;fill-opacity:1;stroke:#000000;stroke-width:4.90450144;stroke-linecap:butt;stroke-linejoin:round;stroke-miterlimit:11.60000038;stroke-opacity:1;stroke-dasharray:none"
       id="path15299"
       sodipodi:cx="142.07622"
       sodipodi:cy="347.57501"
       sodipodi:rx="13.106663"
       sodipodi:ry="13.106663"
       d="m 155.18288,347.57501 a 13.106663,13.106663 0 1 1 -26.21333,0 13.106663,13.106663 0 1 1 26.21333,0 z"
       transform="matrix(0.715873,0,0,0.715873,418.93666,239.50038)"
       inkscape:export-filename="/Volumes/iDisk/Documents/Projects/Fix/DB9Male.png"
       inkscape:export-xdpi="300"
       inkscape:export-ydpi="300" />
    <path
       sodipodi:type="arc"
       style="fill:#ffffff;fill-opacity:1;stroke:#000000;stroke-width:4.90450144;stroke-linecap:butt;stroke-linejoin:round;stroke-miterlimit:11.60000038;stroke-opacity:1;stroke-dasharray:none"
       id="path15301"
       sodipodi:cx="142.07622"
       sodipodi:cy="347.57501"
       sodipodi:rx="13.106663"
       sodipodi:ry="13.106663"
       d="m 155.18288,347.57501 a 13.106663,13.106663 0 1 1 -26.21333,0 13.106663,13.106663 0 1 1 26.21333,0 z"
       transform="matrix(0.715873,0,0,0.715873,168.93667,315.81368)"
       inkscape:export-filename="/Volumes/iDisk/Documents/Projects/Fix/DB9Male.png"
       inkscape:export-xdpi="300"
       inkscape:export-ydpi="300" />
    <path
       sodipodi:type="arc"
       style="fill:#ffffff;fill-opacity:1;stroke:#000000;stroke-width:4.90450144;stroke-linecap:butt;stroke-linejoin:round;stroke-miterlimit:11.60000038;stroke-opacity:1;stroke-dasharray:none"
       id="path15303"
       sodipodi:cx="142.07622"
       sodipodi:cy="347.57501"
       sodipodi:rx="13.106663"
       sodipodi:ry="13.106663"
       d="m 155.18288,347.57501 a 13.106663,13.106663 0 1 1 -26.21333,0 13.106663,13.106663 0 1 1 26.21333,0 z"
       transform="matrix(0.715873,0,0,0.715873,240.19546,315.81368)"
       inkscape:export-filename="/Volumes/iDisk/Documents/Projects/Fix/DB9Male.png"
       inkscape:export-xdpi="300"
       inkscape:export-ydpi="300" />
    <path
       sodipodi:type="arc"
       style="fill:#ffffff;fill-opacity:1;stroke:#000000;stroke-width:4.90450144;stroke-linecap:butt;stroke-linejoin:round;stroke-miterlimit:11.60000038;stroke-opacity:1;stroke-dasharray:none"
       id="path15305"
       sodipodi:cx="142.07622"
       sodipodi:cy="347.57501"
       sodipodi:rx="13.106663"
       sodipodi:ry="13.106663"
       d="m 155.18288,347.57501 a 13.106663,13.106663 0 1 1 -26.21333,0 13.106663,13.106663 0 1 1 26.21333,0 z"
       transform="matrix(0.715873,0,0,0.715873,311.45436,315.81368)"
       inkscape:export-filename="/Volumes/iDisk/Documents/Projects/Fix/DB9Male.png"
       inkscape:export-xdpi="300"
       inkscape:export-ydpi="300" />
    <path
       sodipodi:type="arc"
       style="fill:#ffffff;fill-opacity:1;stroke:#000000;stroke-width:4.90450144;stroke-linecap:butt;stroke-linejoin:round;stroke-miterlimit:11.60000038;stroke-opacity:1;stroke-dasharray:none"
       id="path15307"
       sodipodi:cx="142.07622"
       sodipodi:cy="347.57501"
       sodipodi:rx="13.106663"
       sodipodi:ry="13.106663"
       d="m 155.18288,347.57501 a 13.106663,13.106663 0 1 1 -26.21333,0 13.106663,13.106663 0 1 1 26.21333,0 z"
       transform="matrix(0.715873,0,0,0.715873,382.71316,315.81368)"
       inkscape:export-filename="/Volumes/iDisk/Documents/Projects/Fix/DB9Male.png"
       inkscape:export-xdpi="300"
       inkscape:export-ydpi="300" />
    <path
       inkscape:connector-curvature="0"
       style="font-size:28px;font-style:normal;font-variant:normal;font-weight:normal;font-stretch:normal;text-align:start;line-height:125%;writing-mode:lr-tb;text-anchor:start;fill:#000000;fill-opacity:1;stroke:none;font-family:Verdana"
       d="m 526.27801,462.2782 c -2e-5,0.94792 -0.17319,1.85482 -0.51953,2.7207 -0.34637,0.86589 -0.82033,1.59505 -1.42188,2.1875 -0.65626,0.63802 -1.43783,1.12793 -2.34472,1.46973 -0.90691,0.34179 -1.95737,0.51269 -3.15137,0.51269 -1.11199,0 -2.18295,-0.11621 -3.21289,-0.34863 -1.02995,-0.23242 -1.90039,-0.5127 -2.61133,-0.84082 l 0,-2.88477 0.19141,0 c 0.74739,0.47396 1.62239,0.87728 2.625,1.20996 1.0026,0.33269 1.98697,0.49903 2.95312,0.49903 0.64713,0 1.27376,-0.0912 1.87989,-0.27344 0.6061,-0.18229 1.14614,-0.5013 1.62011,-0.95703 0.40103,-0.39193 0.70409,-0.86133 0.90918,-1.4082 0.20507,-0.54687 0.30761,-1.18034 0.30762,-1.9004 -10e-6,-0.70181 -0.12078,-1.29426 -0.36231,-1.77734 -0.24154,-0.48306 -0.5765,-0.87043 -1.00488,-1.16211 -0.47397,-0.34634 -1.05046,-0.59016 -1.72949,-0.73144 -0.67905,-0.14127 -1.43783,-0.21191 -2.27637,-0.21192 -0.80209,10e-6 -1.57455,0.0547 -2.31738,0.16406 -0.74284,0.10939 -1.38314,0.21876 -1.9209,0.32813 l 0,-10.48633 12.25,0 0,2.39258 -9.61133,0 0,5.41406 c 0.39192,-0.0364 0.79297,-0.0638 1.20313,-0.082 0.41015,-0.0182 0.76562,-0.0273 1.0664,-0.0273 1.10286,1e-5 2.069,0.0934 2.89844,0.28027 0.82942,0.18686 1.59048,0.51726 2.28321,0.99121 0.72915,0.50131 1.29425,1.14845 1.69531,1.94141 0.40102,0.79297 0.60154,1.78646 0.60156,2.98047 l 0,0 z"
       id="text16218"
       inkscape:export-filename="/Volumes/iDisk/Documents/Projects/Fix/DB9Male.png"
       inkscape:export-xdpi="300"
       inkscape:export-ydpi="300" />
    <path
       inkscape:connector-curvature="0"
       style="font-size:28px;font-style:normal;font-variant:normal;font-weight:normal;font-stretch:normal;text-align:start;line-height:125%;writing-mode:lr-tb;text-anchor:start;fill:#000000;fill-opacity:1;stroke:none;font-family:Verdana"
       d="m 457.30427,463.01648 -3.02148,0 0,5.72851 -2.625,0 0,-5.72851 -9.74805,0 0,-3.14453 9.85742,-11.48438 2.51563,0 0,12.44141 3.02148,0 0,2.1875 z m -5.64648,-2.1875 0,-9.1875 -7.88867,9.1875 7.88867,0 z"
       id="text16234"
       inkscape:export-filename="/Volumes/iDisk/Documents/Projects/Fix/DB9Male.png"
       inkscape:export-xdpi="300"
       inkscape:export-ydpi="300" />
    <path
       inkscape:connector-curvature="0"
       style="font-size:28px;font-style:normal;font-variant:normal;font-weight:normal;font-stretch:normal;text-align:start;line-height:125%;writing-mode:lr-tb;text-anchor:start;fill:#000000;fill-opacity:1;stroke:none;font-family:Verdana"
       d="m 384.20847,458.51843 c 0.43749,0.39194 0.79751,0.88412 1.08008,1.47656 0.28254,0.59246 0.42381,1.35808 0.42383,2.29688 -2e-5,0.92969 -0.16864,1.7819 -0.50586,2.55664 -0.33726,0.77474 -0.81121,1.44922 -1.42188,2.02344 -0.6836,0.63802 -1.48796,1.1097 -2.41308,1.41504 -0.92514,0.30533 -1.93914,0.458 -3.04199,0.458 -1.13022,0 -2.2422,-0.13444 -3.33594,-0.40332 -1.09376,-0.26888 -1.99154,-0.56282 -2.69336,-0.88183 l 0,-2.85742 0.20508,0 c 0.77473,0.51041 1.68619,0.93424 2.73437,1.27148 1.04817,0.33724 2.05989,0.50586 3.03516,0.50586 0.57421,0 1.18489,-0.0957 1.83203,-0.28711 0.64712,-0.1914 1.17121,-0.47396 1.57227,-0.84766 0.41925,-0.40104 0.73143,-0.84309 0.93652,-1.32617 0.20506,-0.48307 0.3076,-1.09374 0.30762,-1.83203 -2e-5,-0.72916 -0.11623,-1.333 -0.34864,-1.81152 -0.23243,-0.47851 -0.55372,-0.85449 -0.96386,-1.12793 -0.41017,-0.28255 -0.90692,-0.47623 -1.49024,-0.58106 -0.58334,-0.10481 -1.21225,-0.15721 -1.88672,-0.15722 l -1.23047,0 0,-2.26954 0.95704,0 c 1.3854,2e-5 2.49055,-0.28937 3.31543,-0.86816 0.82485,-0.57876 1.23729,-1.42414 1.2373,-2.53613 -1e-5,-0.49217 -0.10483,-0.92284 -0.31445,-1.29199 -0.20965,-0.36913 -0.50132,-0.67219 -0.875,-0.90918 -0.39194,-0.23697 -0.81121,-0.40103 -1.25782,-0.49219 -0.44662,-0.0911 -0.95248,-0.1367 -1.51757,-0.13672 -0.8659,2e-5 -1.78647,0.15497 -2.76172,0.46484 -0.97527,0.30992 -1.89584,0.74742 -2.76172,1.3125 l -0.13672,0 0,-2.85742 c 0.64713,-0.31899 1.51074,-0.61293 2.59082,-0.88183 1.08007,-0.26886 2.12597,-0.4033 3.1377,-0.40332 0.99348,2e-5 1.86847,0.0912 2.625,0.27343 0.75649,0.18231 1.44009,0.47398 2.05078,0.875 0.65623,0.43752 1.15298,0.96617 1.49023,1.58594 0.33723,0.61981 0.50585,1.34442 0.50586,2.17383 -10e-6,1.13022 -0.39878,2.11687 -1.19629,2.95996 -0.79754,0.84311 -1.73862,1.37403 -2.82324,1.59277 l 0,0.19141 c 0.43749,0.0729 0.93879,0.2256 1.50391,0.45801 0.56509,0.23243 1.0436,0.52182 1.43554,0.86816 l 0,0 z"
       id="text16238"
       inkscape:export-filename="/Volumes/iDisk/Documents/Projects/Fix/DB9Male.png"
       inkscape:export-xdpi="300"
       inkscape:export-ydpi="300" />
    <path
       inkscape:connector-curvature="0"
       style="font-size:28px;font-style:normal;font-variant:normal;font-weight:normal;font-stretch:normal;text-align:start;line-height:125%;writing-mode:lr-tb;text-anchor:start;fill:#000000;fill-opacity:1;stroke:none;font-family:Verdana"
       d="m 315.29627,468.74499 -13.78125,0 0,-2.85742 c 0.95702,-0.82031 1.91633,-1.64062 2.87793,-2.46094 0.96158,-0.8203 1.85709,-1.63606 2.68652,-2.44726 1.74999,-1.6953 2.94856,-3.04198 3.5957,-4.04004 0.64713,-0.99803 0.97069,-2.07583 0.97071,-3.2334 -2e-5,-1.05727 -0.34865,-1.88442 -1.0459,-2.48144 -0.69728,-0.59699 -1.67026,-0.89549 -2.91895,-0.89551 -0.82943,2e-5 -1.72722,0.14585 -2.69336,0.4375 -0.96615,0.29168 -1.90951,0.7383 -2.83008,1.33984 l -0.13671,0 0,-2.87109 c 0.64713,-0.31899 1.51073,-0.61066 2.59082,-0.875 1.08007,-0.2643 2.12597,-0.39647 3.13769,-0.39649 2.08723,2e-5 3.7233,0.5036 4.9082,1.51075 1.18489,1.00718 1.77733,2.37208 1.77735,4.09472 -2e-5,0.77476 -0.098,1.49709 -0.29395,2.16699 -0.19597,0.66994 -0.48536,1.30568 -0.86816,1.90723 -0.35548,0.56512 -0.77248,1.1211 -1.25098,1.66797 -0.47853,0.54688 -1.05958,1.153 -1.74316,1.81836 -0.97527,0.95704 -1.98243,1.88444 -3.02149,2.78223 -1.03907,0.89779 -2.00977,1.72949 -2.91211,2.49511 l 10.95118,0 0,2.33789 z"
       id="text16242"
       inkscape:export-filename="/Volumes/iDisk/Documents/Projects/Fix/DB9Male.png"
       inkscape:export-xdpi="300"
       inkscape:export-ydpi="300" />
    <path
       inkscape:connector-curvature="0"
       style="font-size:28px;font-style:normal;font-variant:normal;font-weight:normal;font-stretch:normal;text-align:start;line-height:125%;writing-mode:lr-tb;text-anchor:start;fill:#000000;fill-opacity:1;stroke:none;font-family:Verdana"
       d="m 243.87528,468.32117 -11.01953,0 0,-2.07813 4.23828,0 0,-13.64453 -4.23828,0 0,-1.85938 c 0.57421,2e-5 1.18944,-0.0478 1.8457,-0.14355 0.65624,-0.0957 1.15299,-0.23468 1.49023,-0.41699 0.41927,-0.22785 0.74967,-0.51724 0.99122,-0.86817 0.24152,-0.35089 0.38052,-0.82257 0.41699,-1.41504 l 2.11914,0 0,18.34766 4.15625,0 0,2.07813 z"
       id="text16246"
       inkscape:export-filename="/Volumes/iDisk/Documents/Projects/Fix/DB9Male.png"
       inkscape:export-xdpi="300"
       inkscape:export-ydpi="300" />
    <path
       inkscape:connector-curvature="0"
       style="font-size:28px;font-style:normal;font-variant:normal;font-weight:normal;font-stretch:normal;text-align:start;line-height:125%;writing-mode:lr-tb;text-anchor:start;fill:#000000;fill-opacity:1;stroke:none;font-family:Verdana"
       d="m 491.95489,592.81015 c -2e-5,1.77735 -0.20282,3.39063 -0.6084,4.83984 -0.40561,1.44923 -1.01857,2.68425 -1.83887,3.70508 -0.82944,1.03906 -1.8685,1.84115 -3.11718,2.40625 -1.24871,0.5651 -2.71616,0.84766 -4.40235,0.84766 -0.47396,0 -0.92058,-0.0251 -1.33984,-0.0752 -0.41928,-0.0501 -0.79297,-0.12988 -1.1211,-0.23926 l 0,-2.61132 0.13672,0 c 0.26432,0.13672 0.63802,0.2666 1.1211,0.38964 0.48306,0.12305 1.02082,0.18458 1.61328,0.18457 2.01431,10e-6 3.59341,-0.60383 4.7373,-1.81152 1.14387,-1.20768 1.80696,-2.87337 1.98926,-4.99707 -0.84767,0.51042 -1.64519,0.87501 -2.39258,1.09375 -0.7474,0.21876 -1.56316,0.32813 -2.44726,0.32813 -0.83855,0 -1.59734,-0.082 -2.27637,-0.2461 -0.67904,-0.16405 -1.36036,-0.48306 -2.04395,-0.95703 -0.80208,-0.55598 -1.40592,-1.26236 -1.81152,-2.11914 -0.4056,-0.85676 -0.6084,-1.88215 -0.6084,-3.07617 0,-2.07811 0.68359,-3.76887 2.05078,-5.07227 1.36719,-1.30336 3.03515,-1.95506 5.00391,-1.95508 0.98437,2e-5 1.89582,0.15269 2.73437,0.45801 0.83853,0.30536 1.57226,0.76337 2.20118,1.37403 0.77472,0.75652 1.37173,1.7295 1.79101,2.91894 0.41926,1.18947 0.62889,2.72755 0.62891,4.61426 l 0,0 z m -2.76172,-0.58789 c -1e-5,-1.41275 -0.14585,-2.54751 -0.4375,-3.4043 -0.29168,-0.85675 -0.69272,-1.52212 -1.20313,-1.99609 -0.42839,-0.41014 -0.88868,-0.70409 -1.38085,-0.88184 -0.4922,-0.17771 -1.0254,-0.26658 -1.59961,-0.2666 -1.31251,2e-5 -2.34929,0.41017 -3.11036,1.23047 -0.76107,0.82033 -1.1416,1.97332 -1.1416,3.45898 0,0.8659 0.12305,1.57228 0.36914,2.11914 0.24609,0.54689 0.66081,1.0254 1.24414,1.43555 0.41015,0.28256 0.86133,0.47169 1.35352,0.56738 0.49218,0.0957 1.03905,0.14357 1.64062,0.14356 0.71093,10e-6 1.43098,-0.0957 2.16016,-0.28711 0.72916,-0.1914 1.41275,-0.46939 2.05078,-0.83399 0.009,-0.19139 0.0205,-0.38052 0.0342,-0.56738 0.0137,-0.18684 0.0205,-0.42609 0.0205,-0.71777 l 0,0 z"
       id="text16250"
       inkscape:export-filename="/Volumes/iDisk/Documents/Projects/Fix/DB9Male.png"
       inkscape:export-xdpi="300"
       inkscape:export-ydpi="300" />
    <path
       inkscape:connector-curvature="0"
       style="font-size:28px;font-style:normal;font-variant:normal;font-weight:normal;font-stretch:normal;text-align:start;line-height:125%;writing-mode:lr-tb;text-anchor:start;fill:#000000;fill-opacity:1;stroke:none;font-family:Verdana"
       d="m 420.56615,598.96249 c -2e-5,1.75912 -0.68589,3.22201 -2.05762,4.38867 -1.37176,1.16667 -3.09669,1.75 -5.1748,1.75 -2.20574,0 -3.96257,-0.56966 -5.27051,-1.70898 -1.30795,-1.13932 -1.96192,-2.59765 -1.96191,-4.375 -1e-5,-1.1302 0.32812,-2.15331 0.98437,-3.06934 0.65625,-0.916 1.58138,-1.64289 2.77539,-2.18066 l 0,-0.082 c -1.09375,-0.58332 -1.90267,-1.22134 -2.42676,-1.91406 -0.52409,-0.6927 -0.78613,-1.55858 -0.78613,-2.59766 0,-1.53123 0.6289,-2.80727 1.88672,-3.82813 1.25781,-1.02081 2.85741,-1.53122 4.79883,-1.53125 2.03254,3e-5 3.65493,0.48765 4.86718,1.4629 1.21223,0.97527 1.81835,2.21486 1.81836,3.71875 -1e-5,0.92058 -0.28712,1.8252 -0.86132,2.71386 -0.57424,0.88869 -1.41734,1.58367 -2.5293,2.08496 l 0,0.082 c 1.27603,0.54689 2.25129,1.22137 2.92578,2.02344 0.67446,0.80209 1.0117,1.82293 1.01172,3.0625 l 0,0 z m -3.24024,-9.93945 c -1e-5,-0.97525 -0.37598,-1.75226 -1.12793,-2.33106 -0.75196,-0.57875 -1.71127,-0.86814 -2.87792,-0.86816 -1.14845,2e-5 -2.08953,0.27346 -2.82325,0.82031 -0.73373,0.54689 -1.10059,1.28518 -1.10058,2.21485 -10e-6,0.65626 0.18456,1.22364 0.55371,1.70214 0.36913,0.47853 0.9274,0.90464 1.6748,1.27833 0.33723,0.16407 0.82259,0.37826 1.45606,0.64257 0.63345,0.26434 1.25096,0.48309 1.85254,0.65625 0.90233,-0.60155 1.52668,-1.2259 1.87304,-1.87304 0.34634,-0.64713 0.51952,-1.39452 0.51953,-2.24219 l 0,0 z m 0.42383,10.19922 c -10e-6,-0.83854 -0.18458,-1.51074 -0.55371,-2.0166 -0.36915,-0.50586 -1.09148,-1.01399 -2.16699,-1.52442 -0.4284,-0.20051 -0.8978,-0.38736 -1.4082,-0.56054 -0.51043,-0.17317 -1.18946,-0.41471 -2.03711,-0.72461 -0.82032,0.44662 -1.47885,1.05274 -1.97559,1.81836 -0.49675,0.76563 -0.74512,1.63151 -0.74512,2.59765 0,1.23047 0.42383,2.24675 1.27149,3.04883 0.84765,0.80208 1.92317,1.20313 3.22656,1.20312 1.33072,1e-5 2.39485,-0.34179 3.19238,-1.02539 0.79752,-0.68359 1.19628,-1.62239 1.19629,-2.8164 l 0,0 z"
       id="text16254"
       inkscape:export-filename="/Volumes/iDisk/Documents/Projects/Fix/DB9Male.png"
       inkscape:export-xdpi="300"
       inkscape:export-ydpi="300" />
    <path
       inkscape:connector-curvature="0"
       style="font-size:28px;font-style:normal;font-variant:normal;font-weight:normal;font-stretch:normal;text-align:start;line-height:125%;writing-mode:lr-tb;text-anchor:start;fill:#000000;fill-opacity:1;stroke:none;font-family:Verdana"
       d="m 348.69894,586.86288 -9.21484,17.3086 -2.92578,0 9.80273,-17.96485 -11.59375,0 0,-2.39258 13.93164,0 0,3.04883 z"
       id="text16258"
       inkscape:export-filename="/Volumes/iDisk/Documents/Projects/Fix/DB9Male.png"
       inkscape:export-xdpi="300"
       inkscape:export-ydpi="300" />
    <path
       inkscape:connector-curvature="0"
       style="font-size:28px;font-style:normal;font-variant:normal;font-weight:normal;font-stretch:normal;text-align:start;line-height:125%;writing-mode:lr-tb;text-anchor:start;fill:#000000;fill-opacity:1;stroke:none;font-family:Verdana"
       d="m 277.52215,597.63632 c -2e-5,2.06901 -0.68133,3.75749 -2.04395,5.06543 -1.36264,1.30794 -3.03289,1.96191 -5.01074,1.96191 -1.00261,0 -1.91407,-0.15494 -2.73437,-0.46484 -0.82032,-0.3099 -1.54493,-0.77018 -2.17383,-1.38086 -0.78386,-0.75651 -1.3877,-1.75911 -1.81153,-3.00781 -0.42383,-1.24869 -0.63574,-2.7526 -0.63574,-4.51172 0,-1.80468 0.19368,-3.40429 0.58106,-4.79883 0.38736,-1.39451 1.00488,-2.6341 1.85254,-3.71875 0.80207,-1.02993 1.83658,-1.83429 3.10351,-2.41308 1.26692,-0.57876 2.74348,-0.86815 4.42969,-0.86817 0.53775,2e-5 0.98892,0.0228 1.35351,0.0684 0.36457,0.0456 0.73371,0.12763 1.10743,0.24609 l 0,2.61133 -0.13672,0 c -0.25523,-0.1367 -0.64032,-0.26658 -1.15528,-0.38965 -0.51498,-0.12302 -1.04135,-0.18455 -1.5791,-0.18457 -1.95964,2e-5 -3.52279,0.61298 -4.68945,1.83887 -1.16667,1.22593 -1.84571,2.8825 -2.03711,4.96973 0.76562,-0.46483 1.51985,-0.81802 2.26269,-1.05957 0.74284,-0.24153 1.60188,-0.36229 2.57715,-0.36231 0.86588,2e-5 1.62922,0.0798 2.29004,0.23926 0.6608,0.15952 1.33755,0.48081 2.03028,0.96387 0.80206,0.556 1.40591,1.25782 1.81152,2.10547 0.40558,0.84766 0.60838,1.87761 0.6084,3.08984 l 0,0 z m -2.77539,0.10938 c -2e-5,-0.84765 -0.12534,-1.54948 -0.37598,-2.10547 -0.25066,-0.55598 -0.6631,-1.03906 -1.2373,-1.44922 -0.41929,-0.29166 -0.88413,-0.48306 -1.39454,-0.57422 -0.51042,-0.0911 -1.04362,-0.13671 -1.5996,-0.13672 -0.77475,1e-5 -1.4948,0.0912 -2.16016,0.27344 -0.66537,0.1823 -1.34896,0.46485 -2.05078,0.84765 -0.0182,0.20053 -0.0319,0.39422 -0.041,0.58106 -0.009,0.18686 -0.0137,0.42156 -0.0137,0.7041 0,1.44011 0.14811,2.57715 0.44434,3.41113 0.29621,0.83399 0.70409,1.49252 1.22363,1.97559 0.41926,0.40104 0.87271,0.69499 1.36035,0.88183 0.48762,0.18686 1.01855,0.28028 1.59277,0.28028 1.32161,0 2.36067,-0.40332 3.11719,-1.20996 0.7565,-0.80664 1.13475,-1.96647 1.13477,-3.47949 l 0,0 z"
       id="text16262"
       inkscape:export-filename="/Volumes/iDisk/Documents/Projects/Fix/DB9Male.png"
       inkscape:export-xdpi="300"
       inkscape:export-ydpi="300" />
    <path
       sodipodi:type="arc"
       style="fill:#ffffff;fill-opacity:1;stroke:#000000;stroke-width:4;stroke-linecap:round;stroke-linejoin:miter;stroke-miterlimit:4;stroke-opacity:1;stroke-dasharray:none;stroke-dashoffset:0"
       id="path3771"
       sodipodi:cx="-36.839092"
       sodipodi:cy="110.32749"
       sodipodi:rx="32.085663"
       sodipodi:ry="32.085663"
       d="m -4.7534294,110.32749 c 0,17.72042 -14.3652406,32.08566 -32.0856626,32.08566 -17.720423,0 -32.085663,-14.36524 -32.085663,-32.08566 0,-17.720421 14.36524,-32.085661 32.085663,-32.085661 17.720422,0 32.0856626,14.36524 32.0856626,32.085661 z"
       transform="matrix(1,0,0,-1,157.83937,641.57247)"
       inkscape:export-filename="/Volumes/iDisk/Documents/Projects/Fix/DB9Male.png"
       inkscape:export-xdpi="300"
       inkscape:export-ydpi="300" />
    <path
       transform="matrix(1,0,0,-1,677.9432,641.57247)"
       d="m -4.7534294,110.32749 c 0,17.72042 -14.3652406,32.08566 -32.0856626,32.08566 -17.720423,0 -32.085663,-14.36524 -32.085663,-32.08566 0,-17.720421 14.36524,-32.085661 32.085663,-32.085661 17.720422,0 32.0856626,14.36524 32.0856626,32.085661 z"
       sodipodi:ry="32.085663"
       sodipodi:rx="32.085663"
       sodipodi:cy="110.32749"
       sodipodi:cx="-36.839092"
       id="path3840"
       style="fill:#ffffff;fill-opacity:1;stroke:#000000;stroke-width:4;stroke-linecap:round;stroke-linejoin:miter;stroke-miterlimit:4;stroke-opacity:1;stroke-dasharray:none;stroke-dashoffset:0"
       sodipodi:type="arc"
       inkscape:export-filename="/Volumes/iDisk/Documents/Projects/Fix/DB9Male.png"
       inkscape:export-xdpi="300"
       inkscape:export-ydpi="300" />
  </g>
</svg>
